<svg width="26" height="25" viewBox="0 0 26 25" fill="none" xmlns="http://www.w3.org/2000/svg">
<path d="M12 4.875C12 6.03532 11.5391 7.14812 10.7186 7.96859C9.89812 8.78906 8.78532 9.25 7.625 9.25C6.46468 9.25 5.35188 8.78906 4.53141 7.96859C3.71094 7.14812 3.25 6.03532 3.25 4.875C3.25 3.71468 3.71094 2.60188 4.53141 1.78141C5.35188 0.960936 6.46468 0.5 7.625 0.5C8.78532 0.5 9.89812 0.960936 10.7186 1.78141C11.5391 2.60188 12 3.71468 12 4.875ZM18.125 7.5C17.1898 7.4993 16.2596 7.63489 15.3635 7.9025C14.9606 7.38547 14.7109 6.76568 14.643 6.11371C14.575 5.46174 14.6916 4.8038 14.9793 4.21481C15.267 3.62583 15.7143 3.12947 16.2703 2.78228C16.8263 2.43508 17.4686 2.251 18.1241 2.251C18.7796 2.251 19.422 2.43508 19.978 2.78228C20.534 3.12947 20.9813 3.62583 21.269 4.21481C21.5567 4.8038 21.6732 5.46174 21.6053 6.11371C21.5373 6.76568 21.2877 7.38547 20.8848 7.9025C19.9893 7.63506 19.0596 7.49947 18.125 7.5ZM3.25 11H10.6997C9.27471 12.7227 8.4966 14.8893 8.5 17.125C8.5 17.7095 8.5525 18.28 8.65225 18.8348C8.31051 18.862 7.96782 18.8754 7.625 18.875C0.625 18.875 0.625 13.7562 0.625 13.7562V13.625C0.625 12.9288 0.901562 12.2611 1.39384 11.7688C1.88613 11.2766 2.55381 11 3.25 11ZM26 17.125C26 19.2136 25.1703 21.2166 23.6935 22.6935C22.2166 24.1703 20.2136 25 18.125 25C16.0364 25 14.0334 24.1703 12.5565 22.6935C11.0797 21.2166 10.25 19.2136 10.25 17.125C10.25 15.0364 11.0797 13.0334 12.5565 11.5565C14.0334 10.0797 16.0364 9.25 18.125 9.25C20.2136 9.25 22.2166 10.0797 23.6935 11.5565C25.1703 13.0334 26 15.0364 26 17.125ZM19 13.625C19 13.3929 18.9078 13.1704 18.7437 13.0063C18.5796 12.8422 18.3571 12.75 18.125 12.75C17.8929 12.75 17.6704 12.8422 17.5063 13.0063C17.3422 13.1704 17.25 13.3929 17.25 13.625V16.25H14.625C14.3929 16.25 14.1704 16.3422 14.0063 16.5063C13.8422 16.6704 13.75 16.8929 13.75 17.125C13.75 17.3571 13.8422 17.5796 14.0063 17.7437C14.1704 17.9078 14.3929 18 14.625 18H17.25V20.625C17.25 20.8571 17.3422 21.0796 17.5063 21.2437C17.6704 21.4078 17.8929 21.5 18.125 21.5C18.3571 21.5 18.5796 21.4078 18.7437 21.2437C18.9078 21.0796 19 20.8571 19 20.625V18H21.625C21.8571 18 22.0796 17.9078 22.2437 17.7437C22.4078 17.5796 22.5 17.3571 22.5 17.125C22.5 16.8929 22.4078 16.6704 22.2437 16.5063C22.0796 16.3422 21.8571 16.25 21.625 16.25H19V13.625Z" fill="black"/>
</svg>
