<svg width="18" height="18" viewBox="0 0 18 18" fill="none" xmlns="http://www.w3.org/2000/svg">
<path d="M15.8985 0.867849L9.00002 7.76635L2.10152 0.867849C1.9356 0.716017 1.7175 0.634056 1.49265 0.639038C1.2678 0.64402 1.05354 0.735562 0.894512 0.894593C0.735481 1.05362 0.643939 1.26788 0.638957 1.49273C0.633975 1.71758 0.715936 1.93568 0.867768 2.1016L7.76277 9.0001L0.866018 15.8968C0.781759 15.9771 0.714404 16.0735 0.66791 16.1802C0.621417 16.2869 0.596723 16.4018 0.595282 16.5182C0.59384 16.6346 0.61568 16.7501 0.659517 16.8579C0.703354 16.9657 0.768303 17.0637 0.850546 17.1461C0.93279 17.2284 1.03067 17.2935 1.13843 17.3375C1.24619 17.3815 1.36166 17.4035 1.47804 17.4022C1.59443 17.4009 1.70938 17.3764 1.81615 17.3301C1.92292 17.2837 2.01935 17.2165 2.09977 17.1324L9.00002 10.2356L15.8985 17.1341C16.0644 17.2859 16.2825 17.3679 16.5074 17.3629C16.7322 17.3579 16.9465 17.2664 17.1055 17.1074C17.2646 16.9483 17.3561 16.7341 17.3611 16.5092C17.3661 16.2844 17.2841 16.0663 17.1323 15.9003L10.2338 9.00185L17.1323 2.1016C17.2165 2.0213 17.2839 1.92497 17.3304 1.81826C17.3769 1.71156 17.4016 1.59664 17.403 1.48026C17.4044 1.36387 17.3826 1.24837 17.3388 1.14055C17.2949 1.03273 17.23 0.934758 17.1477 0.852398C17.0655 0.770038 16.9676 0.70495 16.8599 0.66096C16.7521 0.616971 16.6366 0.594967 16.5202 0.596244C16.4039 0.59752 16.2889 0.622051 16.1821 0.668393C16.0754 0.714735 15.9789 0.781954 15.8985 0.866099V0.867849Z" fill="white"/>
</svg>
